<mxfile host="app.diagrams.net" modified="2024-02-07T18:49:45.315Z" agent="Mozilla/5.0 (Windows NT 10.0; Win64; x64) AppleWebKit/537.36 (KHTML, like Gecko) Chrome/120.0.0.0 YaBrowser/24.1.0.0 Safari/537.36" etag="NxQmY17Qnsui3_clLA4T" version="22.1.18" type="device">
  <diagram name="Страница — 1" id="LJotX-oB2ldxM5Ska99A">
    <mxGraphModel dx="2266" dy="2288" grid="1" gridSize="10" guides="1" tooltips="1" connect="1" arrows="1" fold="1" page="1" pageScale="1" pageWidth="827" pageHeight="1169" math="0" shadow="0">
      <root>
        <mxCell id="0" />
        <mxCell id="1" parent="0" />
        <mxCell id="4AVEtmwTQQEgmb_RuNmp-4" value="" style="edgeStyle=orthogonalEdgeStyle;rounded=0;orthogonalLoop=1;jettySize=auto;html=1;" edge="1" parent="1" source="4AVEtmwTQQEgmb_RuNmp-1" target="4AVEtmwTQQEgmb_RuNmp-3">
          <mxGeometry relative="1" as="geometry" />
        </mxCell>
        <mxCell id="4AVEtmwTQQEgmb_RuNmp-1" value="&lt;font style=&quot;font-size: 17px;&quot;&gt;&lt;font style=&quot;font-size: 17px;&quot;&gt;sta&lt;/font&gt;rt&lt;/font&gt;" style="ellipse;whiteSpace=wrap;html=1;" vertex="1" parent="1">
          <mxGeometry x="310" y="-70" width="120" height="80" as="geometry" />
        </mxCell>
        <mxCell id="4AVEtmwTQQEgmb_RuNmp-7" value="" style="edgeStyle=orthogonalEdgeStyle;rounded=0;orthogonalLoop=1;jettySize=auto;html=1;" edge="1" parent="1" source="4AVEtmwTQQEgmb_RuNmp-3" target="4AVEtmwTQQEgmb_RuNmp-6">
          <mxGeometry relative="1" as="geometry" />
        </mxCell>
        <mxCell id="4AVEtmwTQQEgmb_RuNmp-3" value="i = 0" style="whiteSpace=wrap;html=1;fontSize=17;" vertex="1" parent="1">
          <mxGeometry x="310" y="60" width="120" height="80" as="geometry" />
        </mxCell>
        <mxCell id="4AVEtmwTQQEgmb_RuNmp-9" value="" style="edgeStyle=orthogonalEdgeStyle;rounded=0;orthogonalLoop=1;jettySize=auto;html=1;" edge="1" parent="1" source="4AVEtmwTQQEgmb_RuNmp-6" target="4AVEtmwTQQEgmb_RuNmp-8">
          <mxGeometry relative="1" as="geometry" />
        </mxCell>
        <mxCell id="4AVEtmwTQQEgmb_RuNmp-16" value="" style="edgeStyle=orthogonalEdgeStyle;rounded=0;orthogonalLoop=1;jettySize=auto;html=1;" edge="1" parent="1" source="4AVEtmwTQQEgmb_RuNmp-6" target="4AVEtmwTQQEgmb_RuNmp-15">
          <mxGeometry relative="1" as="geometry" />
        </mxCell>
        <mxCell id="4AVEtmwTQQEgmb_RuNmp-6" value="i&amp;lt;array.length" style="rhombus;whiteSpace=wrap;html=1;fontSize=17;" vertex="1" parent="1">
          <mxGeometry x="295" y="180" width="150" height="130" as="geometry" />
        </mxCell>
        <mxCell id="4AVEtmwTQQEgmb_RuNmp-11" value="" style="edgeStyle=orthogonalEdgeStyle;rounded=0;orthogonalLoop=1;jettySize=auto;html=1;" edge="1" parent="1" source="4AVEtmwTQQEgmb_RuNmp-8" target="4AVEtmwTQQEgmb_RuNmp-10">
          <mxGeometry relative="1" as="geometry" />
        </mxCell>
        <mxCell id="4AVEtmwTQQEgmb_RuNmp-8" value="array[i}length&amp;lt;=3" style="rhombus;whiteSpace=wrap;html=1;fontSize=17;" vertex="1" parent="1">
          <mxGeometry x="280" y="350" width="180" height="160" as="geometry" />
        </mxCell>
        <mxCell id="4AVEtmwTQQEgmb_RuNmp-13" value="" style="edgeStyle=orthogonalEdgeStyle;rounded=0;orthogonalLoop=1;jettySize=auto;html=1;" edge="1" parent="1" source="4AVEtmwTQQEgmb_RuNmp-10" target="4AVEtmwTQQEgmb_RuNmp-12">
          <mxGeometry relative="1" as="geometry" />
        </mxCell>
        <mxCell id="4AVEtmwTQQEgmb_RuNmp-10" value="counter = counter+1&amp;nbsp;" style="whiteSpace=wrap;html=1;fontSize=17;" vertex="1" parent="1">
          <mxGeometry x="255" y="555" width="230" height="95" as="geometry" />
        </mxCell>
        <mxCell id="4AVEtmwTQQEgmb_RuNmp-12" value="i = i + 1" style="whiteSpace=wrap;html=1;fontSize=17;" vertex="1" parent="1">
          <mxGeometry x="305" y="710" width="130" height="60" as="geometry" />
        </mxCell>
        <mxCell id="4AVEtmwTQQEgmb_RuNmp-14" value="" style="endArrow=classic;html=1;rounded=0;exitX=0;exitY=0.5;exitDx=0;exitDy=0;entryX=0;entryY=0.5;entryDx=0;entryDy=0;" edge="1" parent="1" source="4AVEtmwTQQEgmb_RuNmp-12" target="4AVEtmwTQQEgmb_RuNmp-6">
          <mxGeometry width="50" height="50" relative="1" as="geometry">
            <mxPoint x="130" y="820" as="sourcePoint" />
            <mxPoint x="220" y="200" as="targetPoint" />
            <Array as="points">
              <mxPoint x="220" y="740" />
              <mxPoint x="220" y="240" />
            </Array>
          </mxGeometry>
        </mxCell>
        <mxCell id="4AVEtmwTQQEgmb_RuNmp-18" value="" style="edgeStyle=orthogonalEdgeStyle;rounded=0;orthogonalLoop=1;jettySize=auto;html=1;" edge="1" parent="1" source="4AVEtmwTQQEgmb_RuNmp-15" target="4AVEtmwTQQEgmb_RuNmp-17">
          <mxGeometry relative="1" as="geometry" />
        </mxCell>
        <mxCell id="4AVEtmwTQQEgmb_RuNmp-15" value="resultArray&lt;br&gt;j=0&lt;br&gt;i=0" style="whiteSpace=wrap;html=1;fontSize=17;" vertex="1" parent="1">
          <mxGeometry x="540" y="210" width="170" height="65" as="geometry" />
        </mxCell>
        <mxCell id="4AVEtmwTQQEgmb_RuNmp-20" value="" style="edgeStyle=orthogonalEdgeStyle;rounded=0;orthogonalLoop=1;jettySize=auto;html=1;" edge="1" parent="1" source="4AVEtmwTQQEgmb_RuNmp-17" target="4AVEtmwTQQEgmb_RuNmp-19">
          <mxGeometry relative="1" as="geometry" />
        </mxCell>
        <mxCell id="4AVEtmwTQQEgmb_RuNmp-30" value="" style="edgeStyle=orthogonalEdgeStyle;rounded=0;orthogonalLoop=1;jettySize=auto;html=1;" edge="1" parent="1" source="4AVEtmwTQQEgmb_RuNmp-17" target="4AVEtmwTQQEgmb_RuNmp-29">
          <mxGeometry relative="1" as="geometry" />
        </mxCell>
        <mxCell id="4AVEtmwTQQEgmb_RuNmp-17" value="i&amp;lt;array.length" style="rhombus;whiteSpace=wrap;html=1;fontSize=17;" vertex="1" parent="1">
          <mxGeometry x="810" y="168.75" width="145" height="147.5" as="geometry" />
        </mxCell>
        <mxCell id="4AVEtmwTQQEgmb_RuNmp-26" value="" style="edgeStyle=orthogonalEdgeStyle;rounded=0;orthogonalLoop=1;jettySize=auto;html=1;" edge="1" parent="1" source="4AVEtmwTQQEgmb_RuNmp-19" target="4AVEtmwTQQEgmb_RuNmp-25">
          <mxGeometry relative="1" as="geometry" />
        </mxCell>
        <mxCell id="4AVEtmwTQQEgmb_RuNmp-19" value="array[i}length&amp;lt;=3" style="rhombus;whiteSpace=wrap;html=1;fontSize=17;" vertex="1" parent="1">
          <mxGeometry x="778.75" y="430" width="207.5" height="130" as="geometry" />
        </mxCell>
        <mxCell id="4AVEtmwTQQEgmb_RuNmp-23" value="i = i + 1" style="whiteSpace=wrap;html=1;fontSize=17;" vertex="1" parent="1">
          <mxGeometry x="827" y="800" width="130" height="60" as="geometry" />
        </mxCell>
        <mxCell id="4AVEtmwTQQEgmb_RuNmp-24" value="" style="endArrow=classic;html=1;rounded=0;exitX=0.5;exitY=1;exitDx=0;exitDy=0;entryX=0.454;entryY=-0.033;entryDx=0;entryDy=0;entryPerimeter=0;" edge="1" parent="1" source="4AVEtmwTQQEgmb_RuNmp-25" target="4AVEtmwTQQEgmb_RuNmp-23">
          <mxGeometry width="50" height="50" relative="1" as="geometry">
            <mxPoint x="857.5" y="780" as="sourcePoint" />
            <mxPoint x="883" y="790" as="targetPoint" />
          </mxGeometry>
        </mxCell>
        <mxCell id="4AVEtmwTQQEgmb_RuNmp-25" value="resultArray[j] = array[i]&lt;br&gt;j=j+1" style="whiteSpace=wrap;html=1;fontSize=17;" vertex="1" parent="1">
          <mxGeometry x="763.75" y="650" width="237.5" height="60" as="geometry" />
        </mxCell>
        <mxCell id="4AVEtmwTQQEgmb_RuNmp-27" value="" style="endArrow=classic;html=1;rounded=0;exitX=0;exitY=0.5;exitDx=0;exitDy=0;entryX=-0.008;entryY=0.367;entryDx=0;entryDy=0;entryPerimeter=0;" edge="1" parent="1" source="4AVEtmwTQQEgmb_RuNmp-19" target="4AVEtmwTQQEgmb_RuNmp-23">
          <mxGeometry width="50" height="50" relative="1" as="geometry">
            <mxPoint x="690" y="530" as="sourcePoint" />
            <mxPoint x="720" y="840" as="targetPoint" />
            <Array as="points">
              <mxPoint x="710" y="490" />
              <mxPoint x="720" y="820" />
            </Array>
          </mxGeometry>
        </mxCell>
        <mxCell id="4AVEtmwTQQEgmb_RuNmp-28" value="" style="endArrow=classic;html=1;rounded=0;entryX=1;entryY=0.5;entryDx=0;entryDy=0;" edge="1" parent="1" target="4AVEtmwTQQEgmb_RuNmp-17">
          <mxGeometry width="50" height="50" relative="1" as="geometry">
            <mxPoint x="960" y="830" as="sourcePoint" />
            <mxPoint x="1050" y="150" as="targetPoint" />
            <Array as="points">
              <mxPoint x="1070" y="830" />
              <mxPoint x="1050" y="240" />
            </Array>
          </mxGeometry>
        </mxCell>
        <mxCell id="4AVEtmwTQQEgmb_RuNmp-32" value="" style="edgeStyle=orthogonalEdgeStyle;rounded=0;orthogonalLoop=1;jettySize=auto;html=1;" edge="1" parent="1" source="4AVEtmwTQQEgmb_RuNmp-29" target="4AVEtmwTQQEgmb_RuNmp-31">
          <mxGeometry relative="1" as="geometry" />
        </mxCell>
        <mxCell id="4AVEtmwTQQEgmb_RuNmp-29" value="Print array" style="shape=parallelogram;perimeter=parallelogramPerimeter;whiteSpace=wrap;html=1;fixedSize=1;fontSize=17;" vertex="1" parent="1">
          <mxGeometry x="822.5" y="10" width="120" height="60" as="geometry" />
        </mxCell>
        <mxCell id="4AVEtmwTQQEgmb_RuNmp-31" value="Finish" style="ellipse;whiteSpace=wrap;html=1;fontSize=17;" vertex="1" parent="1">
          <mxGeometry x="1042.5" width="80" height="80" as="geometry" />
        </mxCell>
        <mxCell id="4AVEtmwTQQEgmb_RuNmp-33" value="no" style="text;html=1;strokeColor=none;fillColor=none;align=center;verticalAlign=middle;whiteSpace=wrap;rounded=0;" vertex="1" parent="1">
          <mxGeometry x="460" y="210" width="60" height="30" as="geometry" />
        </mxCell>
        <mxCell id="4AVEtmwTQQEgmb_RuNmp-34" value="yes" style="text;html=1;align=center;verticalAlign=middle;resizable=0;points=[];autosize=1;strokeColor=none;fillColor=none;" vertex="1" parent="1">
          <mxGeometry x="320" y="310" width="40" height="30" as="geometry" />
        </mxCell>
        <mxCell id="4AVEtmwTQQEgmb_RuNmp-35" value="" style="endArrow=classic;html=1;rounded=0;exitX=1;exitY=0.5;exitDx=0;exitDy=0;entryX=1;entryY=0.5;entryDx=0;entryDy=0;" edge="1" parent="1" source="4AVEtmwTQQEgmb_RuNmp-8" target="4AVEtmwTQQEgmb_RuNmp-12">
          <mxGeometry width="50" height="50" relative="1" as="geometry">
            <mxPoint x="490" y="455" as="sourcePoint" />
            <mxPoint x="550" y="800" as="targetPoint" />
            <Array as="points">
              <mxPoint x="550" y="430" />
              <mxPoint x="550" y="740" />
            </Array>
          </mxGeometry>
        </mxCell>
        <mxCell id="4AVEtmwTQQEgmb_RuNmp-36" value="no" style="text;html=1;strokeColor=none;fillColor=none;align=center;verticalAlign=middle;whiteSpace=wrap;rounded=0;" vertex="1" parent="1">
          <mxGeometry x="490" y="390" width="60" height="30" as="geometry" />
        </mxCell>
        <mxCell id="4AVEtmwTQQEgmb_RuNmp-37" value="no" style="text;html=1;strokeColor=none;fillColor=none;align=center;verticalAlign=middle;whiteSpace=wrap;rounded=0;" vertex="1" parent="1">
          <mxGeometry x="710" y="450" width="60" height="30" as="geometry" />
        </mxCell>
        <mxCell id="4AVEtmwTQQEgmb_RuNmp-38" value="no" style="text;html=1;strokeColor=none;fillColor=none;align=center;verticalAlign=middle;whiteSpace=wrap;rounded=0;" vertex="1" parent="1">
          <mxGeometry x="827" y="120" width="60" height="30" as="geometry" />
        </mxCell>
        <mxCell id="4AVEtmwTQQEgmb_RuNmp-39" value="yes" style="text;html=1;align=center;verticalAlign=middle;resizable=0;points=[];autosize=1;strokeColor=none;fillColor=none;" vertex="1" parent="1">
          <mxGeometry x="330" y="510" width="40" height="30" as="geometry" />
        </mxCell>
        <mxCell id="4AVEtmwTQQEgmb_RuNmp-40" value="yes" style="text;html=1;align=center;verticalAlign=middle;resizable=0;points=[];autosize=1;strokeColor=none;fillColor=none;" vertex="1" parent="1">
          <mxGeometry x="887" y="350" width="40" height="30" as="geometry" />
        </mxCell>
        <mxCell id="4AVEtmwTQQEgmb_RuNmp-41" value="yes" style="text;html=1;align=center;verticalAlign=middle;resizable=0;points=[];autosize=1;strokeColor=none;fillColor=none;" vertex="1" parent="1">
          <mxGeometry x="887" y="580" width="40" height="30" as="geometry" />
        </mxCell>
      </root>
    </mxGraphModel>
  </diagram>
</mxfile>
